<svg width="120" height="127" viewBox="0 0 120 127" fill="none" xmlns="http://www.w3.org/2000/svg">
<g filter="url(#filter0_d_60_120)">
<rect x="4" y="10" width="105" height="109" rx="20" fill="#AACDDD"/>
<g clip-path="url(#clip0_60_120)">
<path d="M26.72 81.0506H43.4977V84.4172H26.72V81.0506Z" fill="white"/>
<path d="M15.0117 2.10938H113.988V73.2628H15.0117V2.10938Z" fill="#26A69A"/>
<path d="M111.977 4.21875V71.1534H17.0234V4.21875H111.977ZM116 0H13V75.3722H116V0Z" fill="#5D4037"/>
<path d="M25.9393 95.7403C20.7008 76.8909 20.7008 38.2388 20.7008 38.2388L88.2946 37.9603C88.2946 37.9603 88.2946 72.9675 84.3677 95.4956L25.9393 95.7403Z" fill="#BFA055"/>
<path d="M54.4977 72.1828C73.1632 72.1828 88.2946 57.2613 88.2946 38.8547C88.2946 20.4481 73.1632 5.52655 54.4977 5.52655C35.8322 5.52655 20.7008 20.4481 20.7008 38.8547C20.7008 57.2613 35.8322 72.1828 54.4977 72.1828Z" fill="#BFA055"/>
<path d="M19.4375 99.5878V108H89.558V99.5878C89.558 86.7881 72.3457 80.2913 54.7633 80.3166C37.2935 80.3334 19.4375 86.0288 19.4375 99.5878Z" fill="#108ED3"/>
<path d="M54.4574 76.0894H47.1509V84.1809C47.1509 87.8428 50.1282 90.8128 53.7976 90.8128H55.1253C58.7947 90.8128 61.7721 87.8428 61.7721 84.1809V76.0894H54.4574Z" fill="#C48E6A"/>
<path d="M54.4092 11.399C34.8151 11.399 29.6892 27.3206 29.6892 49.6969C29.6892 72.0647 44.8898 78.8906 54.4092 78.8906C63.9287 78.8906 79.1292 72.0647 79.1292 49.6969C79.1292 27.3206 74.0033 11.399 54.4092 11.399Z" fill="#E0BB95"/>
<path d="M61.925 65.8547H47.0705C46.2175 65.8547 45.8554 66.4537 46.4187 67.3566C47.2073 68.6137 50.1283 71.0353 54.4978 71.0353C58.8672 71.0353 61.7882 68.6137 62.5768 67.3566C63.1401 66.4537 62.778 65.8547 61.925 65.8547ZM46.0486 51.1819C46.0486 53.5781 44.5196 55.5272 42.6206 55.5272C40.7296 55.5272 39.1846 53.5865 39.1846 51.1819C39.1846 48.7772 40.7215 46.8365 42.6206 46.8365C44.5196 46.8365 46.0486 48.7772 46.0486 51.1819ZM62.947 51.1819C62.947 53.5781 64.4759 55.5272 66.383 55.5272C68.274 55.5272 69.811 53.5865 69.811 51.1819C69.811 48.7772 68.274 46.8365 66.383 46.8365C64.4759 46.8365 62.947 48.7772 62.947 51.1819Z" fill="#5D4037"/>
<path d="M58.0464 59.2313C56.783 59.6025 55.4714 59.7881 54.4575 59.7881C53.4436 59.7881 52.1319 59.6025 50.8686 59.2313C50.3294 59.0709 50.1121 59.611 50.3133 59.9653C50.7157 60.7078 52.325 62.1928 54.4575 62.1928C56.5899 62.1928 58.1993 60.6994 58.6016 59.9653C58.7947 59.611 58.5855 59.0709 58.0464 59.2313Z" fill="#C48E6A"/>
<path d="M61.7962 28.9913C59.1971 31.6153 46.2738 43.8244 28.4661 47.0053V21.9797C28.4661 21.9797 36.1508 5.99063 54.5943 5.99063C73.0377 5.99063 80.7225 22.3847 80.7225 22.3847V47.0138C80.7225 47.0138 68.6361 42.1538 62.5687 29.1516C62.5377 29.0772 62.49 29.0119 62.4297 28.9611C62.3694 28.9103 62.2983 28.8755 62.2224 28.8598C62.1465 28.844 62.0681 28.8477 61.9939 28.8706C61.9197 28.8935 61.8519 28.9349 61.7962 28.9913Z" fill="#BFA055"/>
<path d="M49.042 88.7709H60.026L54.4093 113.527L49.042 88.7709Z" fill="#455A64"/>
<path d="M38.3074 96.6009L44.592 91.3865L37.1003 88.2647L47.0624 80.0044L54.4092 113.527L38.3074 96.6009ZM64.3551 91.2853L70.7685 96.6009L54.4092 113.527L62.0135 80.0044L71.9755 88.2647L64.3551 91.2853Z" fill="#E0E0E0"/>
<path d="M45.6382 43.1747H36.1026C35.829 43.1747 35.5554 43.2 35.2899 43.2337C35.9175 43.3434 36.4567 43.6978 36.8107 44.1872H45.6301C48.4063 44.1872 50.6674 46.3809 50.6674 49.0809V53.8819C50.6674 56.5819 48.4063 58.7756 45.6301 58.7756H36.1026C33.3264 58.7756 31.0653 56.5819 31.0653 53.8819V49.7559H30.3571C30.2445 49.7559 30.1318 49.7391 30.0192 49.7222V53.8819C30.0192 57.1387 32.7471 59.7881 36.0946 59.7881H45.6301C48.9776 59.7881 51.7055 57.1387 51.7055 53.8819V49.0809C51.7135 45.8241 48.9857 43.1747 45.6382 43.1747Z" fill="#231F20" stroke="#231F20" stroke-width="0.481" stroke-miterlimit="10"/>
<path d="M35.2898 43.2337C35.145 43.2084 35.0001 43.1916 34.8553 43.1916H30.3571C29.0374 43.1916 27.951 44.2378 27.951 45.5287V47.4272C27.951 48.6 28.8523 49.5703 30.0191 49.7306V49.0894C30.0191 46.0941 32.3205 43.6219 35.2898 43.2337Z" fill="black"/>
<path d="M31.0653 49.756V49.0809C31.0653 46.3809 33.3264 44.1872 36.1026 44.1872H36.8188C36.4647 43.6978 35.9256 43.3435 35.2979 43.2338C32.3286 43.6219 30.0272 46.0941 30.0272 49.0809V49.7222C30.1399 49.7391 30.2445 49.756 30.3652 49.756H31.0653Z" fill="black" stroke="black" stroke-width="0.481" stroke-miterlimit="10"/>
<path d="M63.0516 43.1747H72.5871C72.8607 43.1747 73.1343 43.2 73.3999 43.2337C72.7722 43.3434 72.2331 43.6978 71.879 44.1872H63.0516C60.2754 44.1872 58.0142 46.3809 58.0142 49.0809V53.8819C58.0142 56.5819 60.2754 58.7756 63.0516 58.7756H72.5871C75.3633 58.7756 77.6245 56.5819 77.6245 53.8819V49.7559H78.3326C78.4453 49.7559 78.5579 49.7391 78.6706 49.7222V53.8819C78.6706 57.1387 75.9427 59.7881 72.5952 59.7881H63.0516C59.7041 59.7881 56.9762 57.1387 56.9762 53.8819V49.0809C56.9762 45.8241 59.696 43.1747 63.0516 43.1747Z" fill="#231F20" stroke="#231F20" stroke-width="0.481" stroke-miterlimit="10"/>
<path d="M73.3999 43.2337C73.5447 43.2084 73.6896 43.1916 73.8344 43.1916H78.3326C79.6523 43.1916 80.7387 44.2378 80.7387 45.5287V47.4272C80.7387 48.6 79.8374 49.5703 78.6706 49.7306V49.0894C78.6626 46.0941 76.3692 43.6219 73.3999 43.2337Z" fill="black"/>
<path d="M77.6245 49.756V49.0809C77.6245 46.3809 75.3633 44.1872 72.5871 44.1872H71.871C72.225 43.6978 72.7642 43.3435 73.3918 43.2338C76.3611 43.6219 78.6625 46.0941 78.6625 49.0809V49.7222C78.5499 49.7391 78.4453 49.756 78.3246 49.756H77.6245Z" fill="black" stroke="black" stroke-width="0.481" stroke-miterlimit="10"/>
<path d="M57.5555 49.756H50.9893L50.1041 45.3263H58.5212L57.5555 49.756Z" fill="#231F20"/>
<path d="M99.7454 98.0016L97.1221 97.47L108.669 40.2384H109.675L99.7454 98.0016Z" fill="#EF4136"/>
<path d="M96.3576 91.589C97.4681 91.8759 98.1842 92.7028 98.6912 93.7322C99.9304 93.4959 102.079 93.2597 102.699 93.2765C103.431 93.3019 104.413 93.3862 104.573 94.9725C104.678 96.0019 104.308 96.854 103.045 96.9722C102.578 97.0144 102.087 97.0481 101.612 97.0734L101.781 97.6472C102.216 97.6387 102.618 97.6303 102.916 97.6219C104.195 97.605 104.911 98.3137 104.911 99.7312C104.911 100.972 103.889 101.554 103.149 101.604C102.755 101.63 101.652 101.562 100.566 101.461L100.453 101.706L100.405 101.782C101.089 101.891 101.749 102.009 102.208 102.094C103.455 102.322 104.042 103.191 103.906 104.22C103.737 105.469 102.666 105.815 101.934 105.789C101.387 105.772 99.4476 105.46 98.1521 105.165L97.9026 105.545C97.9911 105.562 98.0877 105.578 98.1923 105.595C98.2084 105.595 98.2245 105.604 98.2406 105.604C98.3291 105.621 98.4176 105.629 98.5061 105.646C98.5222 105.646 98.5464 105.654 98.5624 105.654L98.8763 105.705H98.8924C99.005 105.722 99.1177 105.747 99.2223 105.764C99.2464 105.764 99.2625 105.772 99.2867 105.772L99.5442 105.823C99.5764 105.832 99.6166 105.84 99.6488 105.84C99.7212 105.857 99.7936 105.865 99.866 105.882L99.9787 105.907C100.051 105.924 100.124 105.933 100.188 105.95C100.22 105.958 100.252 105.967 100.293 105.967C100.389 105.983 100.494 106.009 100.59 106.026C101.725 106.27 102.159 106.819 102.023 107.764C101.829 109.088 100.55 109.384 99.8821 109.316C99.2062 109.249 96.9289 108.759 96.1806 108.422C96.1323 108.397 96.084 108.371 96.0438 108.346L95.7863 108.742C92.4388 108.506 90.0328 107.047 90.0328 107.047C88.0693 105.891 87.7394 104.996 87.4095 103.587C87.0393 101.984 87.1278 100.077 87.1439 99.7734C87.2646 96.5756 87.9406 94.5084 90.4029 92.7872C90.9984 92.3737 91.8675 91.6481 93.7987 91.4119C94.5471 91.3359 95.6173 91.395 96.3576 91.589Z" fill="#E0BB95"/>
<path d="M99.1499 96.8962C99.1499 96.8962 99.182 95.2847 98.6912 93.7322L99.2303 93.6309C99.2303 93.6309 99.6085 94.7362 99.7453 96.3815C99.7695 96.6515 99.7775 96.8878 99.7775 97.124L100.252 97.0903L103.447 96.9047C103.447 96.9047 103.205 96.9553 103.205 97.3265C103.205 97.4784 103.294 97.5881 103.366 97.6472C103.23 97.6303 103.085 97.6219 102.932 97.6219L99.7614 97.7062C99.7534 97.799 99.7534 97.8919 99.7453 97.9931C99.6729 99.3515 99.3671 100.659 98.6429 101.157C101.041 101.452 103.165 101.604 103.165 101.604C102.747 101.782 102.924 102.313 102.924 102.313C101.314 101.849 97.3956 101.613 97.3956 101.613C95.746 101.461 95.5207 102.634 95.5207 102.634C95.2149 104.043 96.6875 104.692 96.6875 104.692C96.8806 104.811 98.6349 105.173 99.8741 105.427L101.121 105.671L101.475 105.739C101.435 105.73 101.29 105.722 101.234 105.983C101.21 106.11 101.234 106.194 101.258 106.253C101.073 106.169 100.848 106.093 100.59 106.034C100.003 105.907 98.2245 105.604 98.0877 105.578L97.6451 105.511C96.1725 105.308 95.8104 105.587 95.8104 105.587C94.9896 106.042 95.223 107.131 95.223 107.131C95.4 108.177 96.5105 108.515 96.5105 108.515C96.937 108.65 99.1821 109.215 99.1821 109.215L95.7782 108.751C95.5368 108.667 95.4483 108.557 95.3196 108.447C94.1206 107.418 94.6275 106.017 94.6275 106.017C94.8126 105.477 95.1988 105.241 95.1988 105.241C95.4322 105.089 95.6978 105.013 95.9713 104.979C94.5792 104.203 94.8046 102.651 94.8046 102.651C94.9816 101.689 95.6414 101.284 96.1725 101.115C96.1242 101.073 96.076 101.039 96.0277 100.988C96.0277 100.988 95.1345 100.372 95.4644 97.7231C95.5771 96.8372 95.561 96.7106 95.4724 96.1537C95.4724 96.1537 95.1506 94.9556 94.201 95.3353C94.201 95.3353 93.8792 95.4197 93.3803 95.8331C93.3803 95.8331 92.9779 96.1622 92.986 95.6475C92.986 95.4956 93.0906 95.2172 93.2917 94.964C93.2917 94.964 93.501 94.7025 94.0079 94.559C94.0079 94.559 95.3356 94.0022 96.0035 95.4028C96.3496 96.1369 96.2852 96.6262 96.1806 97.3687C96.1806 97.3687 95.9713 99.7312 96.5668 100.491C96.5668 100.491 97.1462 101.191 98.0796 100.761C98.0716 100.752 99.3349 100.027 99.1499 96.8962Z" fill="#C48E6A"/>
</g>
</g>
<defs>
<filter id="filter0_d_60_120" x="0" y="0" width="120" height="127" filterUnits="userSpaceOnUse" color-interpolation-filters="sRGB">
<feFlood flood-opacity="0" result="BackgroundImageFix"/>
<feColorMatrix in="SourceAlpha" type="matrix" values="0 0 0 0 0 0 0 0 0 0 0 0 0 0 0 0 0 0 127 0" result="hardAlpha"/>
<feOffset dy="4"/>
<feGaussianBlur stdDeviation="2"/>
<feComposite in2="hardAlpha" operator="out"/>
<feColorMatrix type="matrix" values="0 0 0 0 0 0 0 0 0 0 0 0 0 0 0 0 0 0 0.25 0"/>
<feBlend mode="normal" in2="BackgroundImageFix" result="effect1_dropShadow_60_120"/>
<feBlend mode="normal" in="SourceGraphic" in2="effect1_dropShadow_60_120" result="shape"/>
</filter>
<clipPath id="clip0_60_120">
<rect width="103" height="108" fill="white" transform="translate(13)"/>
</clipPath>
</defs>
</svg>
