<svg width="382" height="76" viewBox="0 0 382 76" fill="none" xmlns="http://www.w3.org/2000/svg">
<rect width="457" height="76" rx="38" fill="#AACDDD"/>
<path d="M31.98 51V31.12H24.14V26.5H45.49V31.12H37.65V51H31.98ZM55.5867 51.28C53.44 51.28 51.55 50.86 49.9167 50.02C48.3067 49.18 47.0583 48.0367 46.1717 46.59C45.285 45.12 44.8417 43.4517 44.8417 41.585C44.8417 39.695 45.2733 38.0267 46.1367 36.58C47.0233 35.11 48.225 33.9667 49.7417 33.15C51.2583 32.31 52.9733 31.89 54.8867 31.89C56.73 31.89 58.3867 32.2867 59.8567 33.08C61.35 33.85 62.5283 34.97 63.3917 36.44C64.255 37.8867 64.6867 39.625 64.6867 41.655C64.6867 41.865 64.675 42.11 64.6517 42.39C64.6283 42.6467 64.605 42.8917 64.5817 43.125H49.2867V39.94H61.7117L59.6117 40.885C59.6117 39.905 59.4133 39.0533 59.0167 38.33C58.62 37.6067 58.0717 37.0467 57.3717 36.65C56.6717 36.23 55.855 36.02 54.9217 36.02C53.9883 36.02 53.16 36.23 52.4367 36.65C51.7367 37.0467 51.1883 37.6183 50.7917 38.365C50.395 39.0883 50.1967 39.9517 50.1967 40.955V41.795C50.1967 42.8217 50.4183 43.7317 50.8617 44.525C51.3283 45.295 51.97 45.89 52.7867 46.31C53.6267 46.7067 54.6067 46.905 55.7267 46.905C56.73 46.905 57.605 46.7533 58.3517 46.45C59.1217 46.1467 59.8217 45.6917 60.4517 45.085L63.3567 48.235C62.4933 49.215 61.4083 49.9733 60.1017 50.51C58.795 51.0233 57.29 51.28 55.5867 51.28ZM68.3218 51V25.03H73.7818V51H68.3218ZM78.8491 51V25.03H84.3091V51H78.8491ZM107.234 51.28C105.67 51.28 104.27 50.9767 103.034 50.37C101.82 49.7633 100.875 48.8417 100.199 47.605C99.5219 46.345 99.1836 44.7467 99.1836 42.81V32.17H104.644V42.005C104.644 43.5683 104.97 44.7233 105.624 45.47C106.3 46.1933 107.245 46.555 108.459 46.555C109.299 46.555 110.045 46.38 110.699 46.03C111.352 45.6567 111.865 45.0967 112.239 44.35C112.612 43.58 112.799 42.6233 112.799 41.48V32.17H118.259V51H113.079V45.82L114.024 47.325C113.394 48.6317 112.46 49.6233 111.224 50.3C110.01 50.9533 108.68 51.28 107.234 51.28ZM129.652 51.28C128.042 51.28 126.49 51.0933 124.997 50.72C123.527 50.3233 122.36 49.8333 121.497 49.25L123.317 45.33C124.18 45.8667 125.195 46.31 126.362 46.66C127.552 46.9867 128.719 47.15 129.862 47.15C131.122 47.15 132.009 46.9983 132.522 46.695C133.059 46.3917 133.327 45.9717 133.327 45.435C133.327 44.9917 133.117 44.665 132.697 44.455C132.3 44.2217 131.764 44.0467 131.087 43.93C130.41 43.8133 129.664 43.6967 128.847 43.58C128.054 43.4633 127.249 43.3117 126.432 43.125C125.615 42.915 124.869 42.6117 124.192 42.215C123.515 41.8183 122.967 41.2817 122.547 40.605C122.15 39.9283 121.952 39.0533 121.952 37.98C121.952 36.79 122.29 35.74 122.967 34.83C123.667 33.92 124.67 33.2083 125.977 32.695C127.284 32.1583 128.847 31.89 130.667 31.89C131.95 31.89 133.257 32.03 134.587 32.31C135.917 32.59 137.025 32.9983 137.912 33.535L136.092 37.42C135.182 36.8833 134.26 36.5217 133.327 36.335C132.417 36.125 131.53 36.02 130.667 36.02C129.454 36.02 128.567 36.1833 128.007 36.51C127.447 36.8367 127.167 37.2567 127.167 37.77C127.167 38.2367 127.365 38.5867 127.762 38.82C128.182 39.0533 128.73 39.24 129.407 39.38C130.084 39.52 130.819 39.6483 131.612 39.765C132.429 39.8583 133.245 40.01 134.062 40.22C134.879 40.43 135.614 40.7333 136.267 41.13C136.944 41.5033 137.492 42.0283 137.912 42.705C138.332 43.3583 138.542 44.2217 138.542 45.295C138.542 46.4617 138.192 47.5 137.492 48.41C136.792 49.2967 135.777 49.9967 134.447 50.51C133.14 51.0233 131.542 51.28 129.652 51.28ZM163.373 51V47.325L163.023 46.52V39.94C163.023 38.7733 162.661 37.8633 161.938 37.21C161.238 36.5567 160.153 36.23 158.683 36.23C157.679 36.23 156.688 36.3933 155.708 36.72C154.751 37.0233 153.934 37.4433 153.258 37.98L151.298 34.165C152.324 33.4417 153.561 32.8817 155.008 32.485C156.454 32.0883 157.924 31.89 159.418 31.89C162.288 31.89 164.516 32.5667 166.103 33.92C167.689 35.2733 168.483 37.385 168.483 40.255V51H163.373ZM157.633 51.28C156.163 51.28 154.903 51.035 153.853 50.545C152.803 50.0317 151.998 49.3433 151.438 48.48C150.878 47.6167 150.598 46.6483 150.598 45.575C150.598 44.455 150.866 43.475 151.403 42.635C151.963 41.795 152.838 41.1417 154.028 40.675C155.218 40.185 156.769 39.94 158.683 39.94H163.688V43.125H159.278C157.994 43.125 157.108 43.335 156.618 43.755C156.151 44.175 155.918 44.7 155.918 45.33C155.918 46.03 156.186 46.59 156.723 47.01C157.283 47.4067 158.041 47.605 158.998 47.605C159.908 47.605 160.724 47.395 161.448 46.975C162.171 46.5317 162.696 45.89 163.023 45.05L163.863 47.57C163.466 48.7833 162.743 49.705 161.693 50.335C160.643 50.965 159.289 51.28 157.633 51.28ZM184.554 51.28C182.898 51.28 181.474 50.93 180.284 50.23C179.094 49.53 178.184 48.4683 177.554 47.045C176.924 45.5983 176.609 43.7783 176.609 41.585C176.609 39.3683 176.936 37.5483 177.589 36.125C178.266 34.7017 179.199 33.64 180.389 32.94C181.579 32.24 182.968 31.89 184.554 31.89C186.328 31.89 187.914 32.2867 189.314 33.08C190.738 33.8733 191.858 34.9933 192.674 36.44C193.514 37.8867 193.934 39.6017 193.934 41.585C193.934 43.545 193.514 45.2483 192.674 46.695C191.858 48.1417 190.738 49.2733 189.314 50.09C187.914 50.8833 186.328 51.28 184.554 51.28ZM173.424 51V25.03H178.884V35.985L178.534 41.55L178.639 47.15V51H173.424ZM183.609 46.8C184.519 46.8 185.324 46.59 186.024 46.17C186.748 45.75 187.319 45.155 187.739 44.385C188.183 43.5917 188.404 42.6583 188.404 41.585C188.404 40.4883 188.183 39.555 187.739 38.785C187.319 38.015 186.748 37.42 186.024 37C185.324 36.58 184.519 36.37 183.609 36.37C182.699 36.37 181.883 36.58 181.159 37C180.436 37.42 179.864 38.015 179.444 38.785C179.024 39.555 178.814 40.4883 178.814 41.585C178.814 42.6583 179.024 43.5917 179.444 44.385C179.864 45.155 180.436 45.75 181.159 46.17C181.883 46.59 182.699 46.8 183.609 46.8ZM206.549 51.28C204.543 51.28 202.758 50.86 201.194 50.02C199.654 49.18 198.429 48.0367 197.519 46.59C196.633 45.12 196.189 43.4517 196.189 41.585C196.189 39.695 196.633 38.0267 197.519 36.58C198.429 35.11 199.654 33.9667 201.194 33.15C202.758 32.31 204.543 31.89 206.549 31.89C208.533 31.89 210.306 32.31 211.869 33.15C213.433 33.9667 214.658 35.0983 215.544 36.545C216.431 37.9917 216.874 39.6717 216.874 41.585C216.874 43.4517 216.431 45.12 215.544 46.59C214.658 48.0367 213.433 49.18 211.869 50.02C210.306 50.86 208.533 51.28 206.549 51.28ZM206.549 46.8C207.459 46.8 208.276 46.59 208.999 46.17C209.723 45.75 210.294 45.155 210.714 44.385C211.134 43.5917 211.344 42.6583 211.344 41.585C211.344 40.4883 211.134 39.555 210.714 38.785C210.294 38.015 209.723 37.42 208.999 37C208.276 36.58 207.459 36.37 206.549 36.37C205.639 36.37 204.823 36.58 204.099 37C203.376 37.42 202.793 38.015 202.349 38.785C201.929 39.555 201.719 40.4883 201.719 41.585C201.719 42.6583 201.929 43.5917 202.349 44.385C202.793 45.155 203.376 45.75 204.099 46.17C204.823 46.59 205.639 46.8 206.549 46.8ZM228.469 51.28C226.906 51.28 225.506 50.9767 224.269 50.37C223.056 49.7633 222.111 48.8417 221.434 47.605C220.757 46.345 220.419 44.7467 220.419 42.81V32.17H225.879V42.005C225.879 43.5683 226.206 44.7233 226.859 45.47C227.536 46.1933 228.481 46.555 229.694 46.555C230.534 46.555 231.281 46.38 231.934 46.03C232.587 45.6567 233.101 45.0967 233.474 44.35C233.847 43.58 234.034 42.6233 234.034 41.48V32.17H239.494V51H234.314V45.82L235.259 47.325C234.629 48.6317 233.696 49.6233 232.459 50.3C231.246 50.9533 229.916 51.28 228.469 51.28ZM252.252 51.28C250.036 51.28 248.309 50.72 247.072 49.6C245.836 48.4567 245.217 46.765 245.217 44.525V28.005H250.677V44.455C250.677 45.2483 250.887 45.8667 251.307 46.31C251.727 46.73 252.299 46.94 253.022 46.94C253.886 46.94 254.621 46.7067 255.227 46.24L256.697 50.09C256.137 50.4867 255.461 50.79 254.667 51C253.897 51.1867 253.092 51.28 252.252 51.28ZM242.312 36.79V32.59H255.367V36.79H242.312ZM272.054 58.07C271.074 58.07 270.106 57.9183 269.149 57.615C268.193 57.3117 267.411 56.8917 266.804 56.355L268.799 52.47C269.219 52.8433 269.698 53.135 270.234 53.345C270.794 53.555 271.343 53.66 271.879 53.66C272.649 53.66 273.256 53.4733 273.699 53.1C274.166 52.75 274.586 52.155 274.959 51.315L275.939 49.005L276.359 48.41L283.114 32.17H288.364L279.859 52.155C279.253 53.6717 278.553 54.8617 277.759 55.725C276.989 56.5883 276.126 57.195 275.169 57.545C274.236 57.895 273.198 58.07 272.054 58.07ZM275.274 51.735L266.874 32.17H272.509L279.019 47.92L275.274 51.735ZM299.04 51.28C297.033 51.28 295.248 50.86 293.685 50.02C292.145 49.18 290.92 48.0367 290.01 46.59C289.123 45.12 288.68 43.4517 288.68 41.585C288.68 39.695 289.123 38.0267 290.01 36.58C290.92 35.11 292.145 33.9667 293.685 33.15C295.248 32.31 297.033 31.89 299.04 31.89C301.023 31.89 302.796 32.31 304.36 33.15C305.923 33.9667 307.148 35.0983 308.035 36.545C308.921 37.9917 309.365 39.6717 309.365 41.585C309.365 43.4517 308.921 45.12 308.035 46.59C307.148 48.0367 305.923 49.18 304.36 50.02C302.796 50.86 301.023 51.28 299.04 51.28ZM299.04 46.8C299.95 46.8 300.766 46.59 301.49 46.17C302.213 45.75 302.785 45.155 303.205 44.385C303.625 43.5917 303.835 42.6583 303.835 41.585C303.835 40.4883 303.625 39.555 303.205 38.785C302.785 38.015 302.213 37.42 301.49 37C300.766 36.58 299.95 36.37 299.04 36.37C298.13 36.37 297.313 36.58 296.59 37C295.866 37.42 295.283 38.015 294.84 38.785C294.42 39.555 294.21 40.4883 294.21 41.585C294.21 42.6583 294.42 43.5917 294.84 44.385C295.283 45.155 295.866 45.75 296.59 46.17C297.313 46.59 298.13 46.8 299.04 46.8ZM320.959 51.28C319.396 51.28 317.996 50.9767 316.759 50.37C315.546 49.7633 314.601 48.8417 313.924 47.605C313.247 46.345 312.909 44.7467 312.909 42.81V32.17H318.369V42.005C318.369 43.5683 318.696 44.7233 319.349 45.47C320.026 46.1933 320.971 46.555 322.184 46.555C323.024 46.555 323.771 46.38 324.424 46.03C325.077 45.6567 325.591 45.0967 325.964 44.35C326.337 43.58 326.524 42.6233 326.524 41.48V32.17H331.984V51H326.804V45.82L327.749 47.325C327.119 48.6317 326.186 49.6233 324.949 50.3C323.736 50.9533 322.406 51.28 320.959 51.28Z" fill="#118FD3"/>
</svg>
