<svg width="207" height="105" viewBox="0 0 207 105" fill="none" xmlns="http://www.w3.org/2000/svg">
<g filter="url(#filter0_d_104_33)">
<g filter="url(#filter1_d_104_33)">
<path fill-rule="evenodd" clip-rule="evenodd" d="M160.632 61.5314C160.562 60.6264 160.256 59.7691 159.765 59.1004C159.274 58.4316 158.627 57.9914 157.93 57.8521C155.269 57.3201 152.314 56.2378 149.629 54.3661C145.373 51.4048 141.666 46.3583 141.043 38.3398C140.493 31.2536 142.16 25.7146 145.143 21.8206C148.088 17.9761 152.217 15.8664 156.477 15.2795C160.508 14.7244 165.14 15.5735 169.079 18.0127C172.969 20.424 176.063 24.294 177.467 29.8223C177.596 30.3302 177.565 30.8769 177.382 31.3421C177.198 31.8072 176.877 32.1527 176.488 32.3025C176.099 32.4524 175.675 32.3943 175.309 32.141C174.943 31.8877 174.664 31.4601 174.535 30.9521C172.434 22.6803 164.596 18.1896 156.906 19.2495C153.167 19.7652 149.734 21.5983 147.371 24.6805C145.046 27.7174 143.652 32.0957 144.116 38.0742C144.607 44.3994 147.453 48.381 151.02 50.8645C154.633 53.3799 158.881 54.2602 161.723 54.2712C162.114 54.2729 162.495 54.4664 162.789 54.8124C163.082 55.1585 163.268 55.6315 163.307 56.1359L164.13 66.7382C164.171 67.2666 164.048 67.7873 163.789 68.1858C163.53 68.5843 163.156 68.828 162.748 68.8632C162.341 68.8985 161.934 68.7224 161.616 68.3737C161.299 68.025 161.098 67.5322 161.057 67.0039L160.632 61.5314ZM159.799 71.5228C158.808 70.5115 158.119 69.0007 157.984 67.2675L157.559 61.797C154.632 61.2117 151.315 60.0123 148.237 57.8698C143.293 54.4264 138.724 48.3134 137.97 38.6055C137.334 30.4096 139.273 23.7119 142.911 18.9652C146.443 14.3559 151.267 11.9654 156.048 11.3074C165.14 10.0542 176.939 15.073 180.398 28.6924C180.785 30.2164 180.693 31.8564 180.142 33.2516C179.591 34.6469 178.627 35.6831 177.46 36.1323C176.294 36.5815 175.022 36.4069 173.924 35.647C172.825 34.887 171.991 33.6039 171.604 32.08C170.162 26.4025 164.236 22.27 157.335 23.2215C154.121 23.6638 151.382 25.2162 149.603 27.54C147.928 29.7204 146.811 32.9416 147.189 37.8066C147.551 42.4643 149.55 45.3679 152.412 47.3627C155.45 49.4767 159.154 50.2656 161.628 50.2763C162.8 50.2811 163.943 50.8609 164.824 51.8987C165.706 52.9365 166.262 54.3551 166.379 55.8682L167.203 66.4726C167.265 67.2577 167.206 68.0456 167.031 68.7912C166.856 69.5367 166.568 70.2253 166.183 70.8175C165.798 71.4097 165.324 71.8939 164.787 72.2422C164.251 72.5906 163.663 72.7963 163.058 72.8476C161.895 72.9503 160.731 72.4756 159.799 71.5228ZM159.726 76.0136C160.765 75.1944 161.982 74.8075 163.217 74.9035C164.721 75.0161 166.161 75.8344 167.264 77.2045C168.367 78.5747 169.059 80.4023 169.209 82.3436C169.318 83.7603 169.135 85.1764 168.677 86.4461C168.219 87.7158 167.503 88.7931 166.603 89.5672C165.703 90.3412 164.652 90.7839 163.557 90.8498C162.463 90.9157 161.365 90.6022 160.376 89.9418C159.387 89.2814 158.543 88.2979 157.932 87.0925C157.321 85.8872 156.963 84.5036 156.897 83.0843C156.831 81.665 157.058 80.2613 157.555 79.0178C158.052 77.7743 158.801 76.7359 159.725 76.0096M162.753 78.8905C163.568 78.8201 164.383 79.1723 165.017 79.8697C165.651 80.5671 166.054 81.5526 166.136 82.6093C166.218 83.666 165.973 84.7074 165.455 85.5044C164.936 86.3015 164.187 86.7888 163.372 86.8593C162.557 86.9297 161.743 86.5775 161.109 85.8801C160.475 85.1827 160.072 84.1973 159.99 83.1405C159.908 82.0838 160.153 81.0424 160.671 80.2454C161.189 79.4483 161.938 78.961 162.753 78.8905Z" fill="black"/>
</g>
</g>
<g filter="url(#filter2_d_104_33)">
<path d="M4 85.8546L11.945 64.1896C12.3417 63.1162 12.995 62.3112 13.905 61.7746C14.815 61.2146 15.8417 60.9346 16.985 60.9346C18.1283 60.9346 19.155 61.2029 20.065 61.7396C20.975 62.2529 21.6283 63.0579 22.025 64.1546L30.005 85.8546H23.67L22.13 81.1296H11.735L10.125 85.8546H4ZM13.24 76.2646H20.625L17.51 66.4996C17.4633 66.3596 17.3933 66.2662 17.3 66.2196C17.23 66.1496 17.1367 66.1146 17.02 66.1146C16.9033 66.1146 16.7983 66.1496 16.705 66.2196C16.635 66.2896 16.5883 66.3829 16.565 66.4996L13.24 76.2646ZM40.8607 85.8546C38.9941 85.8546 37.3374 85.4696 35.8907 84.6996C34.4441 83.9062 33.3007 82.8446 32.4607 81.5146C31.6207 80.1612 31.2007 78.6212 31.2007 76.8946C31.2007 75.1679 31.6207 73.6396 32.4607 72.3096C33.3007 70.9562 34.4441 69.8829 35.8907 69.0896C37.3374 68.2962 38.9941 67.8996 40.8607 67.8996H43.5557V72.4846H41.0707C40.1607 72.4846 39.3791 72.6829 38.7257 73.0796C38.0724 73.4529 37.5591 73.9779 37.1857 74.6546C36.8357 75.3079 36.6607 76.0546 36.6607 76.8946C36.6607 77.7346 36.8357 78.4929 37.1857 79.1696C37.5591 79.8229 38.0724 80.3479 38.7257 80.7446C39.3791 81.1179 40.1607 81.3046 41.0707 81.3046H43.5557V85.8546H40.8607ZM53.7771 86.2746C52.1904 86.2746 50.7904 85.8662 49.5771 85.0496C48.3638 84.2329 47.4188 83.1362 46.7421 81.7596C46.0654 80.3596 45.7271 78.7846 45.7271 77.0346C45.7271 75.2146 46.1238 73.5929 46.9171 72.1696C47.7104 70.7229 48.8304 69.5796 50.2771 68.7396C51.7471 67.8996 53.4738 67.4796 55.4571 67.4796C57.4638 67.4796 59.1671 67.8996 60.5671 68.7396C61.9904 69.5562 63.0754 70.6879 63.8221 72.1346C64.5921 73.5579 64.9771 75.1562 64.9771 76.9296V85.8546H59.6571V82.9846H59.5171C59.1904 83.6146 58.7704 84.1862 58.2571 84.6996C57.7438 85.1896 57.1138 85.5746 56.3671 85.8546C55.6438 86.1346 54.7804 86.2746 53.7771 86.2746ZM55.3871 81.5846C56.2038 81.5846 56.9154 81.3862 57.5221 80.9896C58.1521 80.5696 58.6304 79.9979 58.9571 79.2746C59.2838 78.5512 59.4471 77.7462 59.4471 76.8596C59.4471 75.9962 59.2838 75.2146 58.9571 74.5146C58.6304 73.8146 58.1521 73.2662 57.5221 72.8696C56.9154 72.4496 56.2038 72.2396 55.3871 72.2396C54.5471 72.2396 53.8121 72.4496 53.1821 72.8696C52.5521 73.2662 52.0738 73.8146 51.7471 74.5146C51.4204 75.2146 51.2571 75.9962 51.2571 76.8596C51.2571 77.7462 51.4204 78.5512 51.7471 79.2746C52.0738 79.9979 52.5521 80.5696 53.1821 80.9896C53.8121 81.3862 54.5471 81.5846 55.3871 81.5846ZM77.774 86.2746C76.2807 86.2746 74.9273 86.0412 73.714 85.5746C72.524 85.1079 71.5207 84.4429 70.704 83.5796C69.8873 82.6929 69.2573 81.6546 68.814 80.4646C68.3707 79.2746 68.149 77.9796 68.149 76.5796C68.149 74.7596 68.5107 73.1729 69.234 71.8196C69.9807 70.4662 70.9957 69.4046 72.279 68.6346C73.5857 67.8646 75.079 67.4796 76.759 67.4796C77.4823 67.4796 78.159 67.5729 78.789 67.7596C79.4423 67.9462 80.0257 68.2262 80.539 68.5996C81.0757 68.9496 81.519 69.3696 81.869 69.8596H81.974V60.3046H87.399V76.5446C87.399 78.5046 87.0023 80.2196 86.209 81.6896C85.4157 83.1596 84.2957 84.2912 82.849 85.0846C81.4257 85.8779 79.734 86.2746 77.774 86.2746ZM77.774 81.5846C78.614 81.5846 79.3373 81.3862 79.944 80.9896C80.574 80.5696 81.0523 80.0096 81.379 79.3096C81.7057 78.5862 81.869 77.7812 81.869 76.8946C81.869 76.0079 81.7057 75.2146 81.379 74.5146C81.0523 73.8146 80.574 73.2662 79.944 72.8696C79.3373 72.4496 78.614 72.2396 77.774 72.2396C76.9573 72.2396 76.234 72.4496 75.604 72.8696C74.974 73.2662 74.4957 73.8146 74.169 74.5146C73.8423 75.2146 73.679 76.0079 73.679 76.8946C73.679 77.7812 73.8423 78.5862 74.169 79.3096C74.4957 80.0096 74.974 80.5696 75.604 80.9896C76.234 81.3862 76.9573 81.5846 77.774 81.5846ZM100.688 85.8546C98.6583 85.8546 96.8733 85.4812 95.3333 84.7346C93.7933 83.9646 92.5917 82.9146 91.7283 81.5846C90.8883 80.2312 90.4683 78.6679 90.4683 76.8946C90.4683 74.9346 90.8767 73.2546 91.6933 71.8546C92.51 70.4546 93.595 69.3812 94.9483 68.6346C96.325 67.8646 97.8417 67.4796 99.4983 67.4796C101.388 67.4796 102.963 67.8762 104.223 68.6696C105.507 69.4629 106.475 70.5479 107.128 71.9246C107.782 73.2779 108.108 74.8296 108.108 76.5796C108.108 76.8829 108.085 77.2446 108.038 77.6646C108.015 78.0612 107.98 78.3762 107.933 78.6096H96.1733C96.3133 79.2162 96.5817 79.7296 96.9783 80.1496C97.375 80.5696 97.8767 80.8846 98.4833 81.0946C99.09 81.2812 99.7667 81.3746 100.513 81.3746H106.008V85.8546H100.688ZM96.0333 75.2146H102.858C102.812 74.8412 102.742 74.4796 102.648 74.1296C102.555 73.7796 102.403 73.4762 102.193 73.2196C102.007 72.9396 101.785 72.7062 101.528 72.5196C101.272 72.3096 100.968 72.1462 100.618 72.0296C100.292 71.9129 99.9183 71.8546 99.4983 71.8546C98.9617 71.8546 98.4833 71.9479 98.0633 72.1346C97.6433 72.3212 97.2933 72.5779 97.0133 72.9046C96.7333 73.2079 96.5117 73.5696 96.3483 73.9896C96.2083 74.3862 96.1033 74.7946 96.0333 75.2146ZM111.269 85.8546V75.2496C111.269 73.7796 111.608 72.4612 112.284 71.2946C112.984 70.1046 113.976 69.1712 115.259 68.4946C116.543 67.8179 118.071 67.4796 119.844 67.4796C120.731 67.4796 121.548 67.5846 122.294 67.7946C123.041 67.9812 123.718 68.2496 124.324 68.5996C124.954 68.9262 125.491 69.3229 125.934 69.7896H126.004C126.471 69.3229 127.008 68.9262 127.614 68.5996C128.244 68.2496 128.933 67.9812 129.679 67.7946C130.449 67.5846 131.278 67.4796 132.164 67.4796C133.938 67.4796 135.466 67.8179 136.749 68.4946C138.033 69.1712 139.024 70.1046 139.724 71.2946C140.424 72.4612 140.774 73.7796 140.774 75.2496V85.8546H135.314V75.4246C135.314 74.8412 135.163 74.3162 134.859 73.8496C134.579 73.3596 134.194 72.9629 133.704 72.6596C133.214 72.3562 132.654 72.2046 132.024 72.2046C131.394 72.2046 130.823 72.3562 130.309 72.6596C129.819 72.9629 129.434 73.3596 129.154 73.8496C128.874 74.3162 128.734 74.8412 128.734 75.4246V85.8546H123.309V75.4246C123.309 74.8412 123.158 74.3162 122.854 73.8496C122.574 73.3596 122.178 72.9629 121.664 72.6596C121.174 72.3562 120.614 72.2046 119.984 72.2046C119.354 72.2046 118.783 72.3562 118.269 72.6596C117.779 72.9629 117.394 73.3596 117.114 73.8496C116.834 74.3162 116.694 74.8412 116.694 75.4246V85.8546H111.269ZM144.8 85.8546V67.8996H150.26V85.8546H144.8ZM147.53 65.8696C146.666 65.8696 145.92 65.5546 145.29 64.9246C144.66 64.2946 144.345 63.5479 144.345 62.6846C144.345 61.8212 144.66 61.0746 145.29 60.4446C145.92 59.7912 146.666 59.4646 147.53 59.4646C148.393 59.4646 149.14 59.7912 149.77 60.4446C150.4 61.0746 150.715 61.8212 150.715 62.6846C150.715 63.5479 150.4 64.2946 149.77 64.9246C149.14 65.5546 148.393 65.8696 147.53 65.8696Z" fill="url(#paint0_linear_104_33)"/>
<path d="M4 92.6796H152.22V95.4796H4V92.6796Z" fill="url(#paint1_linear_104_33)"/>
</g>
<path d="M194.454 57.946L187.98 69.0145C187.601 69.663 187.061 70.1691 186.427 70.4699C185.793 70.7707 185.092 70.8531 184.413 70.7068L173.354 68.3264C172.735 68.1928 172.156 67.8744 171.679 67.4041C171.202 66.9339 170.842 66.329 170.639 65.6522L167.727 55.9341C167.654 55.6848 167.572 55.4215 167.484 55.1514L167.201 54.3081L167.045 53.8692L166.545 52.5047L166.187 51.574L165.63 50.1771L164.895 48.3913L163.656 45.4988L163.125 44.2984C162.989 43.9958 162.923 43.6603 162.931 43.3228C162.939 42.9852 163.022 42.6564 163.172 42.3664C163.322 42.0764 163.534 41.8345 163.789 41.663C164.044 41.4914 164.334 41.3957 164.632 41.3845L164.896 41.3955L166.922 41.5494L168.827 41.667L170.558 41.7495L171.904 41.7926L172.799 41.8091L174.096 41.81L174.914 41.7924L175.676 41.7545L185.032 41.0328C185.66 40.9856 186.289 41.1295 186.854 41.4498C187.42 41.77 187.901 42.2547 188.248 42.8538L194.446 53.547C194.827 54.2043 195.031 54.9715 195.032 55.7535C195.033 56.5355 194.833 57.2976 194.454 57.946ZM183.445 52.8106C182.918 52.4117 182.307 52.1787 181.678 52.136C181.048 52.0933 180.422 52.2424 179.864 52.5677C179.764 52.4411 179.651 52.3291 179.527 52.2343L171.069 45.825C171.013 45.7832 170.947 45.7601 170.881 45.7585L170.184 45.7309L168.837 45.6655L168.2 45.6309C168.138 45.6271 168.078 45.6414 168.023 45.6723C167.968 45.7033 167.922 45.7498 167.888 45.8074C167.855 45.865 167.835 45.9317 167.831 46.001C167.827 46.0702 167.839 46.1397 167.865 46.2026L168.424 47.5419L169.004 48.9703C169.032 49.0392 169.076 49.098 169.132 49.1399L177.592 55.5488C177.716 55.6428 177.85 55.7188 177.99 55.7748C177.943 56.4766 178.061 57.1821 178.331 57.82C178.602 58.4579 179.015 59.0054 179.53 59.4071C180.045 59.8088 180.643 60.0504 181.264 60.1074C181.884 60.1644 182.505 60.0348 183.063 59.7317C183.621 59.4286 184.097 58.9628 184.442 58.3815C184.787 57.8002 184.99 57.1241 185.029 56.4216C185.068 55.7191 184.942 55.0153 184.664 54.3814C184.386 53.7475 183.966 53.2062 183.447 52.8122M198.038 59.0897C198.397 59.3613 198.658 59.7709 198.772 60.2416C198.885 60.7123 198.844 61.2118 198.655 61.6463L198.544 61.8627L192.732 71.8015C192.487 72.2256 192.107 72.5254 191.669 72.6397C191.232 72.754 190.771 72.6742 190.38 72.4165C189.989 72.1588 189.698 71.7427 189.567 71.2535C189.435 70.7643 189.473 70.2389 189.673 69.7848L189.784 69.5664L195.596 59.6276C195.852 59.1883 196.254 58.8847 196.712 58.7835C197.17 58.6822 197.647 58.7917 198.038 59.0877" fill="#108ED3"/>
<defs>
<filter id="filter0_d_104_33" x="116" y="0" width="89.1751" height="110" filterUnits="userSpaceOnUse" color-interpolation-filters="sRGB">
<feFlood flood-opacity="0" result="BackgroundImageFix"/>
<feColorMatrix in="SourceAlpha" type="matrix" values="0 0 0 0 0 0 0 0 0 0 0 0 0 0 0 0 0 0 127 0" result="hardAlpha"/>
<feOffset dy="4"/>
<feGaussianBlur stdDeviation="2"/>
<feComposite in2="hardAlpha" operator="out"/>
<feColorMatrix type="matrix" values="0 0 0 0 0 0 0 0 0 0 0 0 0 0 0 0 0 0 0.25 0"/>
<feBlend mode="normal" in2="BackgroundImageFix" result="effect1_dropShadow_104_33"/>
<feBlend mode="normal" in="SourceGraphic" in2="effect1_dropShadow_104_33" result="shape"/>
</filter>
<filter id="filter1_d_104_33" x="133.851" y="11.1219" width="50.7835" height="90.7365" filterUnits="userSpaceOnUse" color-interpolation-filters="sRGB">
<feFlood flood-opacity="0" result="BackgroundImageFix"/>
<feColorMatrix in="SourceAlpha" type="matrix" values="0 0 0 0 0 0 0 0 0 0 0 0 0 0 0 0 0 0 127 0" result="hardAlpha"/>
<feOffset dy="7"/>
<feGaussianBlur stdDeviation="2"/>
<feComposite in2="hardAlpha" operator="out"/>
<feColorMatrix type="matrix" values="0 0 0 0 0 0 0 0 0 0 0 0 0 0 0 0 0 0 0.25 0"/>
<feBlend mode="normal" in2="BackgroundImageFix" result="effect1_dropShadow_104_33"/>
<feBlend mode="normal" in="SourceGraphic" in2="effect1_dropShadow_104_33" result="shape"/>
</filter>
<filter id="filter2_d_104_33" x="0" y="59.4645" width="156.22" height="45.015" filterUnits="userSpaceOnUse" color-interpolation-filters="sRGB">
<feFlood flood-opacity="0" result="BackgroundImageFix"/>
<feColorMatrix in="SourceAlpha" type="matrix" values="0 0 0 0 0 0 0 0 0 0 0 0 0 0 0 0 0 0 127 0" result="hardAlpha"/>
<feOffset dy="5"/>
<feGaussianBlur stdDeviation="2"/>
<feComposite in2="hardAlpha" operator="out"/>
<feColorMatrix type="matrix" values="0 0 0 0 0 0 0 0 0 0 0 0 0 0 0 0 0 0 0.25 0"/>
<feBlend mode="normal" in2="BackgroundImageFix" result="effect1_dropShadow_104_33"/>
<feBlend mode="normal" in="SourceGraphic" in2="effect1_dropShadow_104_33" result="shape"/>
</filter>
<linearGradient id="paint0_linear_104_33" x1="92" y1="69" x2="91.8811" y2="91.2364" gradientUnits="userSpaceOnUse">
<stop stop-color="#108ED3"/>
<stop offset="1"/>
</linearGradient>
<linearGradient id="paint1_linear_104_33" x1="92" y1="69" x2="91.8811" y2="91.2364" gradientUnits="userSpaceOnUse">
<stop stop-color="#108ED3"/>
<stop offset="1"/>
</linearGradient>
</defs>
</svg>
