<svg width="247" height="279" viewBox="0 0 247 279" fill="none" xmlns="http://www.w3.org/2000/svg">
<path d="M124.6 10.6151C45.4635 10.6151 46.1003 88.9094 46.1003 90.2172C46.1003 143.75 49.7281 219.364 68.6969 249.116C76.2227 260.909 90.7532 261.562 90.7532 261.562L123.5 261.519L156.247 261.562C156.247 261.562 170.797 260.909 178.303 249.116C197.272 219.364 200.9 143.75 200.9 90.2172C200.88 88.9094 203.736 10.6151 124.6 10.6151Z" fill="#AB872F"/>
<path d="M124.6 10.6151C45.4635 10.6151 46.1003 88.9094 46.1003 90.2172C46.1003 143.75 49.7281 219.364 68.6969 249.116C76.2227 260.909 90.7532 261.562 90.7532 261.562L123.5 261.519L156.247 261.562C156.247 261.562 170.797 260.909 178.303 249.116C197.272 219.364 200.9 143.75 200.9 90.2172C200.88 88.9094 203.736 10.6151 124.6 10.6151Z" fill="url(#paint0_radial_60_318)"/>
<path d="M142.372 194.385H104.396V236.845C104.396 247.504 112.134 256.135 121.667 256.135H125.121C134.653 256.135 142.392 247.482 142.392 236.845V194.385H142.372Z" fill="#C48E6A"/>
<path d="M123.404 35.3763C90.2131 35.3763 59.4731 63.2545 59.4731 122.368C59.4731 169.863 85.5046 197.937 108.159 207.005C113.562 209.163 118.772 210.253 123.404 210.253C127.996 210.253 133.187 209.185 138.552 207.049C161.245 198.025 187.334 169.928 187.334 122.389C187.334 63.2546 156.594 35.3763 123.404 35.3763Z" fill="#E0BB95"/>
<path d="M130.756 148.742C130.563 148.655 130.35 148.589 130.138 148.568H116.65C116.437 148.589 116.244 148.655 116.032 148.742C114.816 149.309 114.141 150.725 114.72 152.251C115.299 153.777 117.981 158.049 123.384 158.049C128.787 158.049 131.47 153.777 132.049 152.251C132.647 150.747 131.991 149.309 130.756 148.742Z" fill="#C48E6A"/>
<path d="M92.046 139.718C97.2362 139.718 101.444 134.8 101.444 128.732C101.444 122.665 97.2362 117.747 92.046 117.747C86.8559 117.747 82.6484 122.665 82.6484 128.732C82.6484 134.8 86.8559 139.718 92.046 139.718Z" fill="#5D4037"/>
<path d="M154.761 139.718C159.951 139.718 164.158 134.8 164.158 128.732C164.158 122.665 159.951 117.747 154.761 117.747C149.571 117.747 145.363 122.665 145.363 128.732C145.363 134.8 149.571 139.718 154.761 139.718Z" fill="#5D4037"/>
<path d="M105.998 109.006C104.203 106.325 100.074 102.445 92.046 102.445C84.0185 102.445 79.8697 106.347 78.0944 109.006C77.3032 110.183 77.4962 111.556 78.0558 112.385C78.5575 113.148 80.0627 113.867 81.7222 113.235C83.3817 112.603 86.6236 110.706 92.046 110.663C97.4684 110.706 100.71 112.603 102.37 113.235C104.029 113.867 105.535 113.169 106.036 112.385C106.596 111.556 106.789 110.183 105.998 109.006ZM168.713 109.006C166.918 106.325 162.788 102.445 154.761 102.445C146.733 102.445 142.585 106.347 140.809 109.006C140.018 110.183 140.211 111.556 140.771 112.385C141.272 113.148 142.777 113.867 144.437 113.235C146.097 112.603 149.338 110.706 154.761 110.663C160.183 110.706 163.425 112.603 165.085 113.235C166.744 113.867 168.249 113.169 168.751 112.385C169.311 111.556 169.504 110.183 168.713 109.006Z" fill="#AB872F"/>
<path d="M139.458 166.376C133.38 170.452 113.485 170.452 107.406 166.376C103.914 164.043 100.363 167.618 101.81 171.193C103.238 174.702 114.102 182.876 123.481 182.876C132.859 182.876 143.588 174.702 145.016 171.193C146.463 167.618 142.932 164.021 139.458 166.376Z" fill="#6D4C41"/>
<path d="M220.853 263.72C220.853 231.875 178.882 216.77 142.276 213.37L125.68 237.412C125.14 238.196 124.291 238.676 123.403 238.676C122.516 238.676 121.667 238.218 121.126 237.412L104.512 213.326C84.1535 215.092 25.9541 223.68 25.9541 263.72V270.281H220.853V263.72Z" fill="#212121"/>
<path d="M220.853 263.72C220.853 231.875 178.882 216.77 142.276 213.37L125.68 237.412C125.14 238.196 124.291 238.676 123.403 238.676C122.516 238.676 121.667 238.218 121.126 237.412L104.512 213.326C84.1535 215.092 25.9541 223.68 25.9541 263.72V270.281H220.853V263.72Z" fill="url(#paint1_radial_60_318)"/>
<path d="M124.6 10.6151C45.4635 10.6151 46.1003 88.9094 46.1003 90.2172C46.1003 107.132 46.4669 126.247 47.5475 145.407L60.515 145.363C60.3992 138.999 64.3551 99.6553 76.1069 96.6691C119.255 85.7053 143.665 59.8542 143.665 59.8542C150.014 75.5044 169.87 90.784 176.991 96.6037C182.838 101.377 185.211 137.037 185.096 145.385H199.395C199.395 145.276 199.433 145.167 199.433 145.036C200.514 125.964 200.861 106.979 200.861 90.1737C200.88 88.9094 203.736 10.6151 124.6 10.6151Z" fill="#AB872F"/>
<path d="M124.6 10.6151C45.4635 10.6151 46.1003 88.9094 46.1003 90.2172C46.1003 107.132 46.4669 126.247 47.5475 145.407L60.515 145.363C60.3992 138.999 64.3551 99.6553 76.1069 96.6691C119.255 85.7053 143.665 59.8542 143.665 59.8542C150.014 75.5044 169.87 90.784 176.991 96.6037C182.838 101.377 185.211 137.037 185.096 145.385H199.395C199.395 145.276 199.433 145.167 199.433 145.036C200.514 125.964 200.861 106.979 200.861 90.1737C200.88 88.9094 203.736 10.6151 124.6 10.6151Z" fill="url(#paint2_radial_60_318)"/>
<path d="M225.04 116.177C222.647 116.177 220.698 118.27 220.698 120.842V140.895C220.698 143.467 222.647 145.56 225.04 145.56C227.433 145.56 229.382 143.467 229.382 140.895V120.842C229.382 118.27 227.433 116.177 225.04 116.177ZM216.356 116.177C213.964 116.177 212.015 118.27 212.015 120.842V140.895C212.015 143.467 213.964 145.56 216.356 145.56C218.749 145.56 220.698 143.467 220.698 140.895V120.842C220.698 118.27 218.749 116.177 216.356 116.177Z" fill="#E8AD00"/>
<path d="M220.698 116.177C218.305 116.177 216.356 118.27 216.356 120.842V145.233C216.356 147.805 218.305 149.897 220.698 149.897C223.091 149.897 225.04 147.805 225.04 145.233V120.842C225.04 118.27 223.091 116.177 220.698 116.177Z" fill="#FFCA28"/>
<path d="M220.699 119.229C223.64 119.229 226.024 116.662 226.024 113.496C226.024 110.33 223.64 107.764 220.699 107.764C217.757 107.764 215.373 110.33 215.373 113.496C215.373 116.662 217.757 119.229 220.699 119.229Z" fill="#FFCA28"/>
<path d="M220.698 113.431C219.637 113.431 218.769 112.45 218.769 111.251V28.4231C218.769 27.2243 219.637 26.2434 220.698 26.2434C221.76 26.2434 222.628 27.2243 222.628 28.4231V111.251C222.628 112.45 221.76 113.431 220.698 113.431Z" fill="#504F4F"/>
<path d="M222.628 26.1562C163.136 9.26367 122.284 8.71875 122.284 8.71875C122.284 8.71875 81.4327 9.26367 21.9404 26.1562V27.8346C21.9404 30.7336 23.6193 33.2838 26.07 34.0903C33.2484 36.488 49.3999 41.3269 59.1641 43.5284C59.0097 43.7027 56.6748 47.648 55.2082 50.8303C55.2082 50.8303 73.328 64.17 122.284 69.75C171.24 64.17 193.007 51.2227 193.007 51.2227C191.309 47.2774 189.302 43.9425 189.302 43.9425C197.986 42.3295 211.416 36.7495 218.595 34.1775C221.007 33.3056 222.628 30.799 222.628 27.9436V26.1562Z" fill="url(#paint3_linear_60_318)"/>
<path d="M122.284 8.71875C122.284 8.71875 81.4327 9.26367 21.9404 26.1562C21.9404 26.1562 90.2707 47.2338 122.284 46.6017C154.298 47.2338 222.628 26.1562 222.628 26.1562C163.116 9.26367 122.284 8.71875 122.284 8.71875Z" fill="url(#paint4_linear_60_318)"/>
<path opacity="0.4" d="M222.628 26.1562C163.136 9.26367 122.284 8.71875 122.284 8.71875C122.284 8.71875 81.4327 9.26367 21.9404 26.1562V27.8346C21.9404 30.7336 23.6193 33.2838 26.07 34.0903C33.2484 36.488 49.3999 41.0871 59.1641 43.572C59.1641 43.572 57.0993 46.8197 55.2082 50.8303C55.2082 50.8303 73.328 64.17 122.284 69.75C171.24 64.17 193.007 51.2227 193.007 51.2227C191.309 47.2774 189.302 43.9425 189.302 43.9425C197.986 42.3295 211.416 36.7495 218.595 34.1775C221.007 33.3056 222.628 30.799 222.628 27.9436V26.1562Z" fill="url(#paint5_linear_60_318)"/>
<defs>
<radialGradient id="paint0_radial_60_318" cx="0" cy="0" r="1" gradientUnits="userSpaceOnUse" gradientTransform="translate(123.5 129.666) scale(90.6239 121.824)">
<stop offset="0.794" stop-color="#BFA055" stop-opacity="0"/>
<stop offset="1" stop-color="#BFA055"/>
</radialGradient>
<radialGradient id="paint1_radial_60_318" cx="0" cy="0" r="1" gradientUnits="userSpaceOnUse" gradientTransform="translate(123.403 267.237) scale(104.525 61.9498)">
<stop offset="0.598" stop-color="#108ED3"/>
<stop offset="1" stop-color="#616161"/>
</radialGradient>
<radialGradient id="paint2_radial_60_318" cx="0" cy="0" r="1" gradientUnits="userSpaceOnUse" gradientTransform="translate(124.143 136.447) scale(96.0425 131.647)">
<stop offset="0.794" stop-color="#BFA055" stop-opacity="0"/>
<stop offset="1" stop-color="#BFA055"/>
</radialGradient>
<linearGradient id="paint3_linear_60_318" x1="122.276" y1="-0.725836" x2="122.276" y2="61.7004" gradientUnits="userSpaceOnUse">
<stop offset="0.003" stop-color="#424242"/>
<stop offset="0.472" stop-color="#353535"/>
<stop offset="1" stop-color="#212121"/>
</linearGradient>
<linearGradient id="paint4_linear_60_318" x1="122.276" y1="-0.364008" x2="122.276" y2="67.2063" gradientUnits="userSpaceOnUse">
<stop offset="0.003" stop-color="#616161"/>
<stop offset="0.324" stop-color="#505050"/>
<stop offset="0.955" stop-color="#242424"/>
<stop offset="1" stop-color="#212121"/>
</linearGradient>
<linearGradient id="paint5_linear_60_318" x1="25.5856" y1="39.2322" x2="220.152" y2="39.2322" gradientUnits="userSpaceOnUse">
<stop offset="0.001" stop-color="#BFBEBE"/>
<stop offset="0.3" stop-color="#212121" stop-opacity="0"/>
<stop offset="0.7" stop-color="#212121" stop-opacity="0"/>
<stop offset="1" stop-color="#BFBEBE"/>
</linearGradient>
</defs>
</svg>
