<svg width="122" height="131" viewBox="0 0 122 131" fill="none" xmlns="http://www.w3.org/2000/svg">
<g filter="url(#filter0_d_60_121)">
<rect x="4" y="14" width="105" height="109" rx="20" fill="#AACDDD"/>
<path d="M65.9675 4.22321C32.3265 4.22321 32.5972 35.3726 32.5972 35.8929C32.5972 57.191 34.1394 87.2738 42.2031 99.1109C45.4023 103.802 51.5793 104.062 51.5793 104.062L65.5 104.045L79.4207 104.062C79.4207 104.062 85.6058 103.802 88.7968 99.1109C96.8605 87.2738 98.4027 57.191 98.4027 35.8929C98.3945 35.3726 99.6086 4.22321 65.9675 4.22321Z" fill="#AB872F"/>
<path d="M65.9675 4.22321C32.3265 4.22321 32.5972 35.3726 32.5972 35.8929C32.5972 57.191 34.1394 87.2738 42.2031 99.1109C45.4023 103.802 51.5793 104.062 51.5793 104.062L65.5 104.045L79.4207 104.062C79.4207 104.062 85.6058 103.802 88.7968 99.1109C96.8605 87.2738 98.4027 57.191 98.4027 35.8929C98.3945 35.3726 99.6086 4.22321 65.9675 4.22321Z" fill="url(#paint0_radial_60_121)"/>
<path d="M73.5227 77.3358H57.3789V94.2286C57.3789 98.4691 60.6684 101.903 64.7207 101.903H66.1891C70.2414 101.903 73.5309 98.4605 73.5309 94.2286V77.3358H73.5227Z" fill="#C48E6A"/>
<path d="M65.4589 14.0745C51.3496 14.0745 38.282 25.1658 38.282 48.6839C38.282 67.5799 49.348 78.7493 58.9785 82.3568C61.2753 83.2153 63.4902 83.6489 65.4589 83.6489C67.4113 83.6489 69.6179 83.224 71.8984 82.3741C81.5453 78.784 92.6359 67.6059 92.6359 48.6926C92.6359 25.1658 79.5683 14.0745 65.4589 14.0745Z" fill="#E0BB95"/>
<path d="M68.5844 59.1769C68.5023 59.1422 68.4121 59.1162 68.3219 59.1075H62.5879C62.4976 59.1162 62.4156 59.1422 62.3254 59.1769C61.8086 59.4024 61.5215 59.966 61.7676 60.5731C62.0137 61.1801 63.1539 62.8798 65.4508 62.8798C67.7476 62.8798 68.8879 61.1801 69.134 60.5731C69.3883 59.9747 69.1094 59.4024 68.5844 59.1769Z" fill="#C48E6A"/>
<path d="M52.129 55.5867C54.3353 55.5867 56.1239 53.6299 56.1239 51.2161C56.1239 48.8023 54.3353 46.8455 52.129 46.8455C49.9226 46.8455 48.134 48.8023 48.134 51.2161C48.134 53.6299 49.9226 55.5867 52.129 55.5867Z" fill="#5D4037"/>
<path d="M78.7891 55.5867C80.9954 55.5867 82.784 53.6299 82.784 51.2161C82.784 48.8023 80.9954 46.8455 78.7891 46.8455C76.5828 46.8455 74.7942 48.8023 74.7942 51.2161C74.7942 53.6299 76.5828 55.5867 78.7891 55.5867Z" fill="#5D4037"/>
<path d="M58.0598 43.368C57.2969 42.3014 55.5415 40.7578 52.129 40.7578C48.7165 40.7578 46.9528 42.3101 46.1981 43.368C45.8618 43.8363 45.9438 44.3827 46.1817 44.7122C46.395 45.0157 47.0348 45.3019 47.7403 45.0504C48.4458 44.7989 49.8239 44.0445 52.129 44.0271C54.434 44.0445 55.8122 44.7989 56.5176 45.0504C57.2231 45.3019 57.863 45.0244 58.0762 44.7122C58.3141 44.3827 58.3962 43.8363 58.0598 43.368ZM84.72 43.368C83.9571 42.3014 82.2016 40.7578 78.7891 40.7578C75.3766 40.7578 73.613 42.3101 72.8583 43.368C72.5219 43.8363 72.604 44.3827 72.8419 44.7122C73.0551 45.0157 73.695 45.3019 74.4005 45.0504C75.1059 44.7989 76.484 44.0445 78.7891 44.0271C81.0942 44.0445 82.4723 44.7989 83.1778 45.0504C83.8833 45.3019 84.5231 45.0244 84.7364 44.7122C84.9743 44.3827 85.0563 43.8363 84.72 43.368Z" fill="#AB872F"/>
<path d="M72.284 66.1924C69.7 67.8141 61.2425 67.8141 58.6586 66.1924C57.1738 65.2645 55.6644 66.6867 56.2797 68.1089C56.8867 69.5051 61.505 72.757 65.4918 72.757C69.4785 72.757 74.0394 69.5051 74.6465 68.1089C75.2617 66.6867 73.7605 65.2559 72.284 66.1924Z" fill="#6D4C41"/>
<path d="M106.885 104.921C106.885 92.2514 89.043 86.2418 73.4816 84.889L66.4269 94.4541C66.1973 94.7662 65.8363 94.957 65.459 94.957C65.0816 94.957 64.7207 94.7749 64.491 94.4541L57.4281 84.8716C48.7738 85.5741 24.0332 88.9908 24.0332 104.921V107.531H106.885V104.921Z" fill="#212121"/>
<path d="M106.885 104.921C106.885 92.2514 89.043 86.2418 73.4816 84.889L66.4269 94.4541C66.1973 94.7662 65.8363 94.957 65.459 94.957C65.0816 94.957 64.7207 94.7749 64.491 94.4541L57.4281 84.8716C48.7738 85.5741 24.0332 88.9908 24.0332 104.921V107.531H106.885V104.921Z" fill="url(#paint1_radial_60_121)"/>
<path d="M65.9676 4.22321C32.3265 4.22321 32.5972 35.3726 32.5972 35.8929C32.5972 42.6223 32.7531 50.2275 33.2125 57.8501L38.725 57.8327C38.6758 55.3006 40.3574 39.6478 45.3531 38.4598C63.6953 34.0978 74.0722 23.813 74.0722 23.813C76.7711 30.0394 85.2121 36.1184 88.239 38.4338C90.7246 40.3329 91.7336 54.5201 91.6843 57.8414H97.7629C97.7629 57.798 97.7793 57.7547 97.7793 57.7027C98.2386 50.1148 98.3863 42.5616 98.3863 35.8755C98.3945 35.3726 99.6086 4.22321 65.9676 4.22321Z" fill="#AB872F"/>
<path d="M65.9676 4.22321C32.3265 4.22321 32.5972 35.3726 32.5972 35.8929C32.5972 42.6223 32.7531 50.2275 33.2125 57.8501L38.725 57.8327C38.6758 55.3006 40.3574 39.6478 45.3531 38.4598C63.6953 34.0978 74.0722 23.813 74.0722 23.813C76.7711 30.0394 85.2121 36.1184 88.239 38.4338C90.7246 40.3329 91.7336 54.5201 91.6843 57.8414H97.7629C97.7629 57.798 97.7793 57.7547 97.7793 57.7027C98.2386 50.1148 98.3863 42.5616 98.3863 35.8755C98.3945 35.3726 99.6086 4.22321 65.9676 4.22321Z" fill="url(#paint2_radial_60_121)"/>
<path d="M108.665 46.2211C107.648 46.2211 106.819 47.0536 106.819 48.0769V56.055C106.819 57.0783 107.648 57.9108 108.665 57.9108C109.682 57.9108 110.51 57.0783 110.51 56.055V48.0769C110.51 47.0536 109.682 46.2211 108.665 46.2211ZM104.973 46.2211C103.956 46.2211 103.128 47.0536 103.128 48.0769V56.055C103.128 57.0783 103.956 57.9108 104.973 57.9108C105.991 57.9108 106.819 57.0783 106.819 56.055V48.0769C106.819 47.0536 105.991 46.2211 104.973 46.2211Z" fill="#E8AD00"/>
<path d="M106.819 46.2211C105.802 46.2211 104.973 47.0536 104.973 48.0769V57.7807C104.973 58.804 105.802 59.6365 106.819 59.6365C107.836 59.6365 108.665 58.804 108.665 57.7807V48.0769C108.665 47.0536 107.836 46.2211 106.819 46.2211Z" fill="#FFCA28"/>
<path d="M106.819 47.4352C108.07 47.4352 109.083 46.4141 109.083 45.1545C109.083 43.8949 108.07 42.8737 106.819 42.8737C105.569 42.8737 104.555 43.8949 104.555 45.1545C104.555 46.4141 105.569 47.4352 106.819 47.4352Z" fill="#FFCA28"/>
<path d="M106.819 45.1284C106.368 45.1284 105.999 44.7382 105.999 44.2613V11.3081C105.999 10.8312 106.368 10.4409 106.819 10.4409C107.27 10.4409 107.639 10.8312 107.639 11.3081V44.2613C107.639 44.7382 107.27 45.1284 106.819 45.1284Z" fill="#504F4F"/>
<path d="M107.639 10.4062C82.3492 3.68555 64.9832 3.46875 64.9832 3.46875C64.9832 3.46875 47.6171 3.68555 22.3269 10.4062V11.074C22.3269 12.2273 23.0406 13.242 24.0824 13.5628C27.1339 14.5167 34 16.4419 38.1507 17.3177C38.0851 17.3871 37.0925 18.9567 36.4691 20.2228C36.4691 20.2228 44.1718 25.53 64.9832 27.75C85.7945 25.53 95.0476 20.3789 95.0476 20.3789C94.3257 18.8093 93.4726 17.4825 93.4726 17.4825C97.164 16.8408 102.873 14.6208 105.925 13.5975C106.95 13.2506 107.639 12.2534 107.639 11.1173V10.4062Z" fill="url(#paint3_linear_60_121)"/>
<path d="M64.9832 3.46875C64.9832 3.46875 47.6171 3.68555 22.3269 10.4062C22.3269 10.4062 51.3742 18.792 64.9832 18.5405C78.5921 18.792 107.639 10.4062 107.639 10.4062C82.341 3.68555 64.9832 3.46875 64.9832 3.46875Z" fill="url(#paint4_linear_60_121)"/>
<path opacity="0.4" d="M107.639 10.4062C82.3492 3.68555 64.9832 3.46875 64.9832 3.46875C64.9832 3.46875 47.6171 3.68555 22.3269 10.4062V11.074C22.3269 12.2273 23.0406 13.242 24.0824 13.5628C27.1339 14.5167 34 16.3465 38.1507 17.3351C38.1507 17.3351 37.273 18.6272 36.4691 20.2228C36.4691 20.2228 44.1718 25.53 64.9832 27.75C85.7945 25.53 95.0476 20.3789 95.0476 20.3789C94.3257 18.8093 93.4726 17.4825 93.4726 17.4825C97.164 16.8408 102.873 14.6208 105.925 13.5975C106.95 13.2506 107.639 12.2534 107.639 11.1173V10.4062Z" fill="url(#paint5_linear_60_121)"/>
</g>
<defs>
<filter id="filter0_d_60_121" x="0" y="0" width="122" height="131" filterUnits="userSpaceOnUse" color-interpolation-filters="sRGB">
<feFlood flood-opacity="0" result="BackgroundImageFix"/>
<feColorMatrix in="SourceAlpha" type="matrix" values="0 0 0 0 0 0 0 0 0 0 0 0 0 0 0 0 0 0 127 0" result="hardAlpha"/>
<feOffset dy="4"/>
<feGaussianBlur stdDeviation="2"/>
<feComposite in2="hardAlpha" operator="out"/>
<feColorMatrix type="matrix" values="0 0 0 0 0 0 0 0 0 0 0 0 0 0 0 0 0 0 0.25 0"/>
<feBlend mode="normal" in2="BackgroundImageFix" result="effect1_dropShadow_60_121"/>
<feBlend mode="normal" in="SourceGraphic" in2="effect1_dropShadow_60_121" result="shape"/>
</filter>
<radialGradient id="paint0_radial_60_121" cx="0" cy="0" r="1" gradientUnits="userSpaceOnUse" gradientTransform="translate(65.5 51.5875) scale(38.5243 48.4677)">
<stop offset="0.794" stop-color="#BFA055" stop-opacity="0"/>
<stop offset="1" stop-color="#BFA055"/>
</radialGradient>
<radialGradient id="paint1_radial_60_121" cx="0" cy="0" r="1" gradientUnits="userSpaceOnUse" gradientTransform="translate(65.459 106.32) scale(44.4339 24.6467)">
<stop offset="0.598" stop-color="#108ED3"/>
<stop offset="1" stop-color="#616161"/>
</radialGradient>
<radialGradient id="paint2_radial_60_121" cx="0" cy="0" r="1" gradientUnits="userSpaceOnUse" gradientTransform="translate(65.7731 54.2853) scale(40.8278 52.3756)">
<stop offset="0.794" stop-color="#BFA055" stop-opacity="0"/>
<stop offset="1" stop-color="#BFA055"/>
</radialGradient>
<linearGradient id="paint3_linear_60_121" x1="64.9799" y1="-0.288774" x2="64.9799" y2="24.5475" gradientUnits="userSpaceOnUse">
<stop offset="0.003" stop-color="#424242"/>
<stop offset="0.472" stop-color="#353535"/>
<stop offset="1" stop-color="#212121"/>
</linearGradient>
<linearGradient id="paint4_linear_60_121" x1="64.9799" y1="-0.14482" x2="64.9799" y2="26.738" gradientUnits="userSpaceOnUse">
<stop offset="0.003" stop-color="#616161"/>
<stop offset="0.324" stop-color="#505050"/>
<stop offset="0.955" stop-color="#242424"/>
<stop offset="1" stop-color="#212121"/>
</linearGradient>
<linearGradient id="paint5_linear_60_121" x1="23.8765" y1="15.6085" x2="106.587" y2="15.6085" gradientUnits="userSpaceOnUse">
<stop offset="0.001" stop-color="#BFBEBE"/>
<stop offset="0.3" stop-color="#212121" stop-opacity="0"/>
<stop offset="0.7" stop-color="#212121" stop-opacity="0"/>
<stop offset="1" stop-color="#BFBEBE"/>
</linearGradient>
</defs>
</svg>
