<svg width="247" height="279" viewBox="0 0 247 279" fill="none" xmlns="http://www.w3.org/2000/svg">
<g clip-path="url(#clip0_79_186)">
<path d="M32.9014 209.381H73.1354V218.078H32.9014V209.381Z" fill="white"/>
<path d="M4.82422 5.44922H242.176V189.262H4.82422V5.44922Z" fill="#26A69A"/>
<path d="M237.352 10.8984V183.813H9.64844V10.8984H237.352ZM247 0H0V194.712H247V0Z" fill="#5D4037"/>
<path d="M31.0296 247.329C18.4673 198.635 18.4673 98.7834 18.4673 98.7834L180.561 98.0641C180.561 98.0641 180.561 188.499 171.144 246.697L31.0296 247.329Z" fill="#BFA055"/>
<path d="M99.5142 186.472C144.275 186.472 180.561 147.925 180.561 100.375C180.561 52.8242 144.275 14.277 99.5142 14.277C54.7532 14.277 18.4673 52.8242 18.4673 100.375C18.4673 147.925 54.7532 186.472 99.5142 186.472Z" fill="#BFA055"/>
<path d="M15.4375 257.268V279H183.59V257.268C183.59 224.203 142.314 207.419 100.151 207.484C58.2573 207.528 15.4375 222.241 15.4375 257.268Z" fill="#108ED3"/>
<path d="M99.4176 196.564H81.896V217.467C81.896 226.927 89.0358 234.6 97.8352 234.6H101.019C109.819 234.6 116.958 226.927 116.958 217.467V196.564H99.4176Z" fill="#C48E6A"/>
<path d="M99.3015 29.4476C52.3136 29.4476 40.0215 70.5783 40.0215 128.384C40.0215 186.167 76.4733 203.801 99.3015 203.801C122.13 203.801 158.581 186.167 158.581 128.384C158.581 70.5783 146.289 29.4476 99.3015 29.4476Z" fill="#E0BB95"/>
<path d="M117.325 170.125H81.7029C79.6575 170.125 78.7891 171.672 80.1399 174.004C82.031 177.252 89.0357 183.508 99.5139 183.508C109.992 183.508 116.997 177.252 118.888 174.004C120.239 171.672 119.37 170.125 117.325 170.125ZM79.2522 132.22C79.2522 138.41 75.5858 143.445 71.0318 143.445C66.497 143.445 62.792 138.432 62.792 132.22C62.792 126.008 66.4777 120.994 71.0318 120.994C75.5858 120.994 79.2522 126.008 79.2522 132.22ZM119.776 132.22C119.776 138.41 123.442 143.445 128.015 143.445C132.55 143.445 136.236 138.432 136.236 132.22C136.236 126.008 132.55 120.994 128.015 120.994C123.442 120.994 119.776 126.008 119.776 132.22Z" fill="#5D4037"/>
<path d="M108.024 153.014C104.994 153.973 101.849 154.453 99.4174 154.453C96.986 154.453 93.8407 153.973 90.811 153.014C89.5182 152.6 88.9971 153.995 89.4796 154.91C90.4444 156.829 94.3038 160.665 99.4174 160.665C104.531 160.665 108.39 156.807 109.355 154.91C109.818 153.995 109.317 152.6 108.024 153.014Z" fill="#C48E6A"/>
<path d="M117.016 74.8941C110.783 81.6729 79.7924 113.213 37.0884 121.43V56.7808C37.0884 56.7808 55.5169 15.4758 99.7453 15.4758C143.974 15.4758 162.402 57.8271 162.402 57.8271V121.452C162.402 121.452 133.418 108.897 118.869 75.3082C118.794 75.1162 118.68 74.9474 118.535 74.8161C118.391 74.6848 118.22 74.595 118.038 74.5543C117.856 74.5137 117.668 74.5233 117.49 74.5825C117.312 74.6416 117.15 74.7485 117.016 74.8941Z" fill="#BFA055"/>
<path d="M86.4307 229.325H112.771L99.3017 293.277L86.4307 229.325Z" fill="#455A64"/>
<path d="M60.6885 249.552L75.7593 236.082L57.7939 228.017L81.6835 206.678L99.3015 293.277L60.6885 249.552ZM123.152 235.82L138.532 249.552L99.3015 293.277L117.537 206.678L141.427 228.017L123.152 235.82Z" fill="#E0E0E0"/>
<path d="M78.2682 111.535H55.4014C54.7453 111.535 54.0892 111.6 53.4524 111.687C54.9576 111.971 56.2505 112.886 57.0996 114.15H78.2489C84.9063 114.15 90.3288 119.817 90.3288 126.792V139.195C90.3288 146.17 84.9063 151.837 78.2489 151.837H55.4014C48.744 151.837 43.3216 146.17 43.3216 139.195V128.536H41.6235C41.3533 128.536 41.0831 128.493 40.813 128.449V139.195C40.813 147.608 47.3546 154.453 55.3821 154.453H78.2489C86.2764 154.453 92.8181 147.608 92.8181 139.195V126.792C92.8374 118.379 86.2957 111.535 78.2682 111.535Z" fill="#231F20" stroke="#231F20" stroke-width="0.481" stroke-miterlimit="10"/>
<path d="M53.4523 111.687C53.1049 111.622 52.7576 111.578 52.4102 111.578H41.6233C38.4586 111.578 35.8535 114.281 35.8535 117.616V122.52C35.8535 125.55 38.0148 128.057 40.8128 128.471V126.814C40.8128 119.076 46.3317 112.69 53.4523 111.687Z" fill="black"/>
<path d="M43.3213 128.536V126.792C43.3213 119.817 48.7437 114.15 55.4012 114.15H57.1186C56.2695 112.886 54.9766 111.971 53.4715 111.687C46.3509 112.69 40.832 119.076 40.832 126.792V128.449C41.1022 128.493 41.353 128.536 41.6425 128.536H43.3213Z" fill="black" stroke="black" stroke-width="0.481" stroke-miterlimit="10"/>
<path d="M120.027 111.535H142.893C143.55 111.535 144.206 111.6 144.842 111.687C143.337 111.971 142.044 112.886 141.195 114.15H120.027C113.369 114.15 107.947 119.817 107.947 126.792V139.195C107.947 146.17 113.369 151.837 120.027 151.837H142.893C149.551 151.837 154.973 146.17 154.973 139.195V128.536H156.671C156.942 128.536 157.212 128.493 157.482 128.449V139.195C157.482 147.608 150.94 154.453 142.913 154.453H120.027C111.999 154.453 105.458 147.608 105.458 139.195V126.792C105.458 118.379 111.98 111.535 120.027 111.535Z" fill="#231F20" stroke="#231F20" stroke-width="0.481" stroke-miterlimit="10"/>
<path d="M144.842 111.687C145.19 111.622 145.537 111.578 145.884 111.578H156.671C159.836 111.578 162.441 114.281 162.441 117.616V122.52C162.441 125.55 160.28 128.057 157.482 128.471V126.814C157.462 119.076 151.963 112.69 144.842 111.687Z" fill="black"/>
<path d="M154.973 128.536V126.792C154.973 119.817 149.551 114.15 142.893 114.15H141.176C142.025 112.886 143.318 111.971 144.823 111.687C151.943 112.69 157.462 119.076 157.462 126.792V128.449C157.192 128.493 156.941 128.536 156.652 128.536H154.973Z" fill="black" stroke="black" stroke-width="0.481" stroke-miterlimit="10"/>
<path d="M106.847 128.536H91.1007L88.978 117.093H109.163L106.847 128.536Z" fill="#231F20"/>
<path d="M208.02 253.171L201.729 251.797L229.421 103.949H231.833L208.02 253.171Z" fill="#EF4136"/>
<path d="M199.896 236.605C202.559 237.346 204.277 239.482 205.492 242.141C208.464 241.531 213.616 240.921 215.102 240.964C216.858 241.03 219.212 241.248 219.598 245.346C219.849 248.005 218.961 250.206 215.932 250.511C214.813 250.62 213.636 250.708 212.497 250.773L212.902 252.255C213.944 252.233 214.909 252.212 215.623 252.19C218.691 252.146 220.409 253.977 220.409 257.639C220.409 260.843 217.958 262.347 216.183 262.478C215.237 262.543 212.594 262.369 209.988 262.107L209.718 262.74L209.603 262.936C211.243 263.219 212.825 263.524 213.925 263.742C216.916 264.331 218.325 266.576 217.997 269.235C217.591 272.461 215.025 273.355 213.269 273.289C211.957 273.246 207.306 272.439 204.199 271.676L203.601 272.657C203.813 272.701 204.045 272.744 204.296 272.788C204.334 272.788 204.373 272.81 204.412 272.81C204.624 272.853 204.836 272.875 205.048 272.919C205.087 272.919 205.145 272.94 205.184 272.94L205.936 273.071H205.975C206.245 273.115 206.515 273.18 206.766 273.224C206.824 273.224 206.862 273.246 206.92 273.246L207.538 273.376C207.615 273.398 207.711 273.42 207.789 273.42C207.962 273.464 208.136 273.485 208.31 273.529L208.58 273.594C208.753 273.638 208.927 273.66 209.081 273.703C209.159 273.725 209.236 273.747 209.332 273.747C209.564 273.791 209.815 273.856 210.046 273.9C212.767 274.532 213.809 275.948 213.481 278.39C213.018 281.812 209.95 282.575 208.348 282.4C206.727 282.226 201.266 280.962 199.472 280.09C199.356 280.024 199.24 279.959 199.144 279.894L198.526 280.918C190.499 280.308 184.729 276.537 184.729 276.537C180.02 273.551 179.229 271.24 178.438 267.6C177.55 263.459 177.763 258.533 177.801 257.748C178.091 249.487 179.712 244.147 185.616 239.7C187.044 238.632 189.129 236.758 193.76 236.147C195.554 235.951 198.121 236.104 199.896 236.605Z" fill="#E0BB95"/>
<path d="M206.592 250.315C206.592 250.315 206.669 246.152 205.492 242.141L206.785 241.88C206.785 241.88 207.692 244.735 208.02 248.986C208.078 249.683 208.097 250.294 208.097 250.904L209.236 250.817L216.897 250.337C216.897 250.337 216.318 250.468 216.318 251.427C216.318 251.819 216.53 252.103 216.704 252.255C216.376 252.212 216.028 252.19 215.662 252.19L208.059 252.408C208.04 252.648 208.04 252.887 208.02 253.149C207.847 256.658 207.113 260.037 205.377 261.323C211.127 262.086 216.221 262.478 216.221 262.478C215.218 262.936 215.642 264.309 215.642 264.309C211.783 263.11 202.386 262.5 202.386 262.5C198.43 262.107 197.889 265.137 197.889 265.137C197.156 268.777 200.687 270.456 200.687 270.456C201.151 270.761 205.357 271.698 208.329 272.352L211.32 272.984L212.169 273.158C212.073 273.137 211.725 273.115 211.59 273.791C211.532 274.117 211.59 274.335 211.648 274.488C211.204 274.27 210.664 274.074 210.046 273.921C208.638 273.594 204.373 272.81 204.045 272.744L202.984 272.57C199.452 272.047 198.584 272.766 198.584 272.766C196.616 273.943 197.175 276.755 197.175 276.755C197.6 279.458 200.263 280.33 200.263 280.33C201.286 280.678 206.669 282.139 206.669 282.139L198.507 280.94C197.928 280.722 197.716 280.439 197.407 280.155C194.532 277.496 195.747 273.878 195.747 273.878C196.191 272.483 197.117 271.872 197.117 271.872C197.677 271.48 198.314 271.284 198.97 271.197C195.632 269.191 196.172 265.181 196.172 265.181C196.596 262.696 198.179 261.65 199.452 261.214C199.337 261.105 199.221 261.018 199.105 260.887C199.105 260.887 196.963 259.296 197.754 252.451C198.024 250.163 197.986 249.836 197.774 248.397C197.774 248.397 197.002 245.302 194.725 246.283C194.725 246.283 193.953 246.501 192.756 247.569C192.756 247.569 191.792 248.419 191.811 247.089C191.811 246.697 192.062 245.978 192.544 245.324C192.544 245.324 193.046 244.648 194.262 244.278C194.262 244.278 197.446 242.839 199.047 246.457C199.877 248.354 199.723 249.618 199.472 251.536C199.472 251.536 198.97 257.639 200.398 259.601C200.398 259.601 201.787 261.41 204.026 260.298C204.006 260.276 207.036 258.402 206.592 250.315Z" fill="#C48E6A"/>
</g>
<defs>
<clipPath id="clip0_79_186">
<rect width="247" height="279" fill="white"/>
</clipPath>
</defs>
</svg>
