<svg width="28" height="25" viewBox="0 0 28 25" fill="none" xmlns="http://www.w3.org/2000/svg">
<path d="M18.1 25H9.9001C9.3951 25 8.9856 24.6801 8.9856 24.2855V13.1351C8.9856 12.7405 9.3951 12.4207 9.9001 12.4207H18.0999C18.6049 12.4207 19.0144 12.7405 19.0144 13.1351V24.2855C19.0144 24.6801 18.605 25 18.1 25ZM10.8146 23.571H17.1855V13.8496H10.8146V23.571Z" fill="#2D527C"/>
<path d="M26.2999 25H18.0999C17.5949 25 17.1854 24.6801 17.1854 24.2855V16.9269C17.1854 16.5323 17.5949 16.2124 18.0999 16.2124H24.768C26.1169 16.2124 27.2144 17.0697 27.2144 18.1235V20.6062C27.2144 21.0008 26.8049 21.3207 26.2999 21.3207C25.7949 21.3207 25.3854 21.0008 25.3854 20.6062V18.1235C25.3854 17.8576 25.1084 17.6413 24.768 17.6413H19.0144V23.5711H26.2998C26.8048 23.5711 27.2143 23.891 27.2143 24.2855C27.2143 24.6801 26.8049 25 26.2999 25Z" fill="#2D527C"/>
<path d="M9.90008 25H1.70014C1.19514 25 0.785645 24.6802 0.785645 24.2856V20.2668C0.785645 19.213 1.88302 18.3557 3.23196 18.3557H9.90002C10.405 18.3557 10.8145 18.6756 10.8145 19.0702V24.2856C10.8146 24.6802 10.4051 25 9.90008 25ZM2.61464 23.5711H8.98558V19.7846H3.23202C2.89158 19.7846 2.61464 20.001 2.61464 20.2668V23.5711Z" fill="#2D527C"/>
<path d="M14.0001 9.13535C13.8421 9.13535 13.6843 9.10342 13.5428 9.0396L10.3321 7.59136C9.00901 6.99458 8.18713 5.88242 8.18713 4.68887V0.714453C8.18713 0.319873 8.59663 0 9.10163 0H18.8986C19.4036 0 19.8131 0.319873 19.8131 0.714453C19.8131 1.10903 19.4036 1.42891 18.8986 1.42891H10.0161V4.68892C10.0161 5.37363 10.4876 6.01162 11.2466 6.354L14.0001 7.59595L16.7536 6.35395C17.5126 6.01157 17.984 5.37358 17.984 4.68887V3.70967C17.984 3.31509 18.3935 2.99521 18.8985 2.99521C19.4035 2.99521 19.813 3.31509 19.813 3.70967V4.68887C19.813 5.88242 18.9911 6.99458 17.6681 7.59136L14.4573 9.0396C14.3159 9.10342 14.158 9.13535 14.0001 9.13535Z" fill="#2D527C"/>
<path d="M8.91573 4.42415H7.07405C6.56905 4.42415 6.15955 4.10427 6.15955 3.70969C6.15955 3.31511 6.56905 2.99524 7.07405 2.99524H8.91573C9.42073 2.99524 9.83023 3.31511 9.83023 3.70969C9.83023 4.10427 9.42067 4.42415 8.91573 4.42415Z" fill="#2D527C"/>
<path d="M20.9261 4.42415H18.9014C18.3964 4.42415 17.9869 4.10427 17.9869 3.70969C17.9869 3.31511 18.3964 2.99524 18.9014 2.99524H20.9261C21.4311 2.99524 21.8406 3.31511 21.8406 3.70969C21.8406 4.10427 21.4311 4.42415 20.9261 4.42415Z" fill="#2D527C"/>
</svg>
